<svg width="800px" height="600px" viewBox="0 0 800 600"><path d="M385.4783463118456,39.41498279398229L389.6601333507242,40.244670466269326L387.5349628883432,42.567473064110345L384.79280745301185,42.456874200459424Z" fill="#0b9200"></path><path d="M239.86989269577134,205.43405531057397L241.37807818520378,208.1059599847831L236.78496783102491,209.85055861744968L238.22459943457397,205.76125905899835ZM254.06054707361,198.17875975546576L255.98005587834268,198.77898745739594L259.6819657160395,205.65219212773127L257.9681185689569,209.1963636190235L251.72971495357888,207.45167060074664L248.5076823170657,208.97829075715708L246.1082963111512,212.19446699832497L242.47494035933778,209.52346554037695L244.60011082171877,207.12451262755303L243.09192533228634,203.57973324203294L245.2856496805507,201.56147072944714L249.8102061488462,203.90698724593358Z" fill="#168c00"></path><path d="M564.2668806954207,154.82834161346682L560.7020786294888,156.14265259665717L554.2580133564643,163.75183913122146L552.407058437615,167.63666530932232L551.310196263481,175.56652911752872L554.326567242344,188.95331273465627L557.1372765635606,191.3012876713501L555.9033066176617,193.86715392312954L556.1775221611952,198.2333271463135L553.5039206117472,199.27006060392932L555.0121061011778,202.7070125094101L550.0076724317005,207.34261892694803L547.5397325399008,218.89663292364276L539.039050690375,216.77195687279027L535.0629253091465,213.6114938511446L535.0629253091465,216.11813554847913L529.5100605526004,218.6242593391562L527.6591056337529,216.77195687279027L523.4773185948743,216.60850484522143L519.3640854418754,214.21095532522213L518.1301154959783,212.4669850366131L512.5086968535488,213.82948327266786L508.46401758643697,210.77727432081292L507.70992484171984,206.79734579805472L510.1778647335195,202.6524653676397L514.9766367453467,198.45159423730138L515.1822984029968,192.39321262345175L517.1703610936129,191.3012876713501L520.0496243007092,184.5837639609299L521.9005792195585,184.52913451852146L526.767905117269,183.16331745955085L531.9094465585167,178.2997429109937L531.7037849008648,173.59822758587006L534.6516019938445,171.57491243734876L540.1359128645072,170.8639363756015L543.7007149304372,167.0895834756725L546.4428703657686,166.98016408979356L549.1164719152166,162.82148102583233L554.4636750141126,160.35841644917855L553.7095822693955,157.07353464351036Z" fill="#059600"></path><path d="M515.1822984029968,192.39321262345175L514.9766367453467,198.45159423730138L510.1778647335195,202.6524653676397L507.70992484171984,206.79734579805472L502.568383400474,207.17903957139606L502.7740450581241,205.48858988420898L498.7979196768938,199.70655326429323L494.75324040978194,200.90682656791932L490.7085611426701,200.2521468563591L486.1840046743728,201.39781302116126L486.9380974190881,197.25107627464877L485.36135804377227,195.66839236909027L487.2123129626216,192.6115857048194L480.63113991782666,187.36953530939172L476.99778396601323,183.4364933353727L477.8889844824953,181.36020028731264L474.32418241656524,180.81374749067163L475.14682904716574,177.64382864578783L479.39716997192954,174.2543641795637L482.8934181519744,176.11322193022943L481.7965559778422,172.2311603846838L478.6430772272124,169.49655543839253L473.4329819000832,167.14429279118622L478.4374155695641,158.98982629007787L483.30474146727465,158.33284690868595L485.15569638612396,162.16471377361768L489.3374834250026,164.13490658539786L493.5878243497664,164.73684477743654L493.10794714858275,168.1837219890358L499.20924299219405,172.34053152971774L501.12875179692674,171.5202234771864L502.63693728635917,174.1996875086179L506.2702932381708,176.0038853707083L506.2017393522874,182.61694700515636L510.86340359234964,185.13004468258487L511.68605022295014,191.3558862765135Z" fill="#0a9300"></path><path d="M474.32418241656524,180.81374749067163L477.8889844824953,181.36020028731264L476.99778396601323,183.4364933353727L480.63113991782666,187.36953530939172L487.2123129626216,192.6115857048194L485.36135804377227,195.66839236909027L486.9380974190881,197.25107627464877L486.1840046743728,201.39781302116126L490.7085611426701,200.2521468563591L494.75324040978194,200.90682656791932L498.7979196768938,199.70655326429323L502.7740450581241,205.48858988420898L502.568383400474,207.17903957139606L500.23755128044286,212.35797855714554L497.15262641569643,211.15884251572652L494.68468652389856,214.53792181429708L482.8934181519744,220.58521282472248L480.0141549448799,217.26229974431908L474.25562853068186,216.28159418327095L472.2675658400676,220.91200763484449L465.4807311376244,221.34772037948096L463.14989901759145,218.84215869551826L459.3794352940113,217.9160594212408L453.2781394504018,213.9929727654926L446.9711819491404,206.9064023920223L450.6730917868372,202.76155940455692L455.19764825513266,191.51968060276886L460.4077435822637,185.73092470778965L464.58953062114233,184.6383931541818L469.04553320355444,178.2997429109937L471.8562425247692,178.0811088238802Z" fill="#089400"></path><path d="M432.50631202777004,229.29673847287177L436.756652952532,230.76619430571373L440.3214550184621,237.94765619131704L445.8743197750082,239.36168949590774L447.3825052644406,246.21200185361658L451.9756156186213,247.6794284725329L448.34225966680606,248.3859047039864L449.09635241152137,252.62390986200535L446.9711819491404,261.5298347827779L447.6567208079741,265.05784531865083L452.38693893391974,267.9880431210304L448.61647521033956,269.50713210201457L441.0069938772958,268.0422995055965L437.23653015371565,268.1508115619499L430.5182493371558,265.3291890676378L419.6181814817155,266.197449090444L415.0936250134182,264.9493061530743L411.871592376905,261.80125595581103L415.1621788993016,258.7067009705397L417.2873493616844,253.6560234221579L421.81190582997806,247.733774240171L422.2917830311617,243.3853525754398L426.13080064062524,240.77555952035027L428.94150996184,232.83401759655726Z" fill="#1f8700"></path><path d="M509.83509530410083,227.6638020582336L510.5206341629346,229.94985180900903L504.9677694063903,232.07222871500426L504.5564460910882,236.09828912707826L508.6011253582037,238.11082221762217L508.0526942711367,241.21056362209947L504.6249999769734,243.82026408189859L502.63693728635917,249.69006183724377L504.21367666167316,252.4066117716966L503.45958391695603,260.11834855118013L500.78598236750804,264.298051163903L499.8262279651426,269.72412961648297L497.97527304629693,270.53783647502496L501.06019791104336,276.77448409686895L500.58032070985973,281.38217012104315L498.5922580192455,287.28835764654286L493.31360880623106,288.48009329625984L491.73686943091707,295.35743901414025L485.97834301672265,294.9784710781305L483.30474146727465,299.1464885114842L484.4701575272902,301.4734803914371L481.3166787766604,302.880289663869L479.87704717311135,300.39121222131416L476.2436912212979,299.68768789597925L472.2675658400676,298.98412414604536L465.9606083388062,299.52533053042134L463.2184529034748,292.3795248938013L464.79519227879064,288.588427264272L463.5612223328935,287.1258394302331L456.500172086915,286.15068571235406L450.3303223574203,286.20486291704583L447.6567208079741,283.76665582982287L449.3020140691733,279.3224742436564L448.61647521033956,274.76825218347994L449.91899904212005,274.3886583578119L448.61647521033956,269.50713210201457L452.38693893391974,267.9880431210304L447.6567208079741,265.05784531865083L446.9711819491404,261.5298347827779L449.09635241152137,252.62390986200535L448.34225966680606,248.3859047039864L451.9756156186213,247.6794284725329L458.0083575763474,249.1466798457136L465.06940782232596,242.24363648157941L465.61783890939114,237.83887763179018L467.19457828470695,237.18618596561237L470.4166109212183,239.79674381116592L475.83236790599767,236.85982707402582L479.32861608604617,237.51253615099176L480.90535546136016,234.68387851838315L484.5387114131736,234.30304769535542L488.37772902263714,230.65735179548437L491.9425310885672,230.3308184387629L494.6161326380152,227.55493185185242L495.644440926264,228.7524506376917L502.15706008517554,225.86731923368734Z" fill="#039700"></path><path d="M399.7375545755658,294.4912097462902L398.0922613143666,297.6851335916731L392.47084267193895,299.95827883970514ZM448.61647521033956,269.50713210201457L449.91899904212005,274.3886583578119L448.61647521033956,274.76825218347994L449.3020140691733,279.3224742436564L447.6567208079741,283.76665582982287L450.3303223574203,286.20486291704583L456.500172086915,286.15068571235406L456.9114954022152,289.9966834061811L451.3586306456709,289.346738747136L449.37056795505487,287.8842396820278L443.2007182255602,288.85925807560307L439.4988083878634,287.72172921867195L436.68809906664865,283.8208433868913L430.3811415653872,285.446360652511L427.7760939018244,284.687812285154L417.90433433463113,290.8632237369766L416.121933301667,293.84149848715424L412.0087001486718,296.2777420114521L405.42752710387686,294.70777267777567L404.87909601680985,285.8256175463648L402.959587212079,284.687812285154L407.4841436803745,272.05661313661676L406.3872815062423,269.66988059393316L410.8432840886562,264.51513996939957L411.871592376905,261.80125595581103L415.0936250134182,264.9493061530743L419.6181814817155,266.197449090444L430.5182493371558,265.3291890676378L437.23653015371565,268.1508115619499L441.0069938772958,268.0422995055965Z" fill="#0e9100"></path><path d="M456.500172086915,286.15068571235406L463.5612223328935,287.1258394302331L464.79519227879064,288.588427264272L463.2184529034748,292.3795248938013L465.9606083388062,299.52533053042134L472.2675658400676,298.98412414604536L476.2436912212979,299.68768789597925L472.1304580683027,300.7159024634975L466.7832549694049,304.2869415307159L464.79519227879064,308.93859331659814L459.3108814081279,311.75038716494737L453.6894627657002,317.2640105454143L448.89069075387124,316.12904942717705L449.7818912703551,322.8832708203345L443.1321643396768,323.8015668301896L437.9906228984328,321.64076446383797L438.33339232784783,314.5615546396525L439.84157781728027,313.1019881068519L436.756652952532,311.5341175816852L435.93400632193516,306.77524809483066L431.2723420818693,304.9902084773421L423.0458757758788,306.12617206561936L418.17854987816463,308.6141152115988L412.0087001486718,316.07500111857235L409.19799082745703,316.6695198064035L402.959587212079,311.91258692007614L404.1250032720927,307.69471520553816L406.45583539212566,308.0732998034314L405.2904193321101,299.4170911202109L406.45583539212566,297.2521068503811L403.1652488697273,297.30623601060915L405.42752710387686,294.70777267777567L412.0087001486718,296.2777420114521L416.121933301667,293.84149848715424L417.90433433463113,290.8632237369766L427.7760939018244,284.687812285154L430.3811415653872,285.446360652511L436.68809906664865,283.8208433868913L439.4988083878634,287.72172921867195L443.2007182255602,288.85925807560307L449.37056795505487,287.8842396820278L451.3586306456709,289.346738747136L456.9114954022152,289.9966834061811ZM431.615111511288,294.9784710781305L426.61067784180705,296.87319618723177L427.15910892887405,300.28298027517576L431.066680424221,302.50154881108347L437.1679762678323,299.4712109419711L434.9056980336827,296.38600851046385Z" fill="#079500"></path><path d="M468.085778801189,359.13268909395174L468.70276377413757,361.7718699440627L471.37636532358556,362.74122927520193L471.5134730953523,365.6488704319959L469.79962594827157,371.08548062058867L462.3272523869946,373.66841580771074L459.17377363636297,379.2630111511685L457.2542648316303,386.68289324476405L459.3794352940113,392.16444033983225L458.2825731198809,395.4415218463332L461.64171352816084,399.2547968996478L458.69389643518116,400.6509299933432L457.597034261049,404.14061304815596L461.2303902128606,406.1266340676834L460.81906689756215,410.95624490032424L468.3599943447207,417.01758523903663L470.9650420082871,415.46228547153873L470.1423953776866,426.18477538770435L471.37636532358556,428.81046308990767L471.37636532358556,435.6134042983206L466.4404855399898,440.05754491077914L466.2348238823415,443.5368636299413L468.3599943447207,447.8178602911355L464.3838689634922,444.76779037622964L459.17377363636297,442.57345064422725L457.1857109457487,446.3196671239307L454.64921716806566,444.8748221341016L454.99198659748436,440.699948855701L452.52404670568467,436.47022130907453L455.26620214101604,429.8820232287758L453.62090887981685,425.7024497611924L452.38693893391974,418.62632345284146L449.37056795505487,414.92593274233263L448.2051518950375,409.1855932773267L444.229026513809,404.247973208091L432.78052757130354,397.26773573225387L429.6956027065553,394.47459957621686L429.62704882067374,390.4987233805414L431.2723420818693,385.8228337108126L430.7924648806875,376.089450190427L432.43775814188666,371.08548062058867L432.3692042560033,365.75654827135986L433.6031742019022,360.26383278356434L441.0069938772958,360.4792774660516L445.5315503455913,356.27745595644274L448.9592446397546,355.1998448157806L451.3586306456709,357.839831794623L454.16933996688385,355.5231376391098L457.39137260339703,356.1696989051993L460.6819591257954,359.8329326120279L464.58953062114233,356.87010360516524Z" fill="#089400"></path><path d="M523.9571957960561,430.7392091527313L529.5100605526004,430.7927814383304L529.5100605526004,434.86364422968745L532.5949854173468,437.16634459102625L529.6471683243672,438.3978583350106L524.5056268831213,434.16740067294336ZM522.8603336219239,374.7444868853013L524.3685191113564,374.6906854522731L524.299965225473,378.8327432428821L521.2835942466081,377.7032221760444L520.5295015018928,374.9596903855106ZM523.203103051339,303.2590191070776L521.626363676025,306.82933625367195L520.3238398442427,314.61560942076403L517.6502382947965,316.9397463337359L514.4967595441649,325.63795945889296L516.1420528053623,332.5490576795187L511.89171188059845,335.1397520683345L509.355218102919,342.36932352906297L500.30610516632623,357.13947987625033L496.2614258992144,359.8867959215406L497.4953958451133,363.17203226328184L495.5758870403806,366.67177367208L491.18843834385007,370.7625775015822L482.6877564943243,376.089450190427L480.63113991782666,383.3498462673381L478.6430772272124,385.01647634692176L475.35249070481404,395.602668612647L470.759380350637,407.09269800791935L470.9650420082871,415.46228547153873L468.3599943447207,417.01758523903663L460.81906689756215,410.95624490032424L461.2303902128606,406.1266340676834L457.597034261049,404.14061304815596L458.69389643518116,400.6509299933432L461.64171352816084,399.2547968996478L458.2825731198809,395.4415218463332L459.3794352940113,392.16444033983225L457.2542648316303,386.68289324476405L459.17377363636297,379.2630111511685L462.3272523869946,373.66841580771074L469.79962594827157,371.08548062058867L471.5134730953523,365.6488704319959L471.37636532358556,362.74122927520193L468.70276377413757,361.7718699440627L468.085778801189,359.13268909395174L465.9606083388062,355.4153742677845L464.4524228493756,347.60011998992195L469.52541040473625,340.9129480485917L469.9367337200365,335.8413078343169L469.1826409753212,329.84985701819187L472.1304580683027,327.2040844404519L472.67888915536787,321.64076446383797L477.54621505308023,317.4801820684024L482.48209483667597,316.02095257890596L484.88148084259046,316.6695198064035L486.80098964732315,322.01893146566044L491.3255461156168,323.09934645211024L492.9022854909326,325.4219270591216L496.6727492145128,324.98985122867L498.45515024747874,330.60569092382775L501.8142906557605,331.73935759325514L503.93946111813966,334.8699126462625L507.50426318407153,333.79049781662343L508.46401758643697,329.6338962232362L512.8514662829657,316.07500111857235L516.8961455500794,310.0201266816466L514.9080828594651,307.69471520553816L518.8156543548102,302.122796546204Z" fill="#029800"></path><path d="M547.5397325399008,218.89663292364276L544.8661309904528,224.1250221442474L538.5591734891932,229.40559312450796L537.9421885162428,235.8806981458074L534.6516019938445,239.47045452380507L534.1717247926645,244.58132211826705L536.5025569126956,248.4945897501475L533.0063087326489,252.89552708143583L532.2522159879318,262.23551743359667L529.8528299820191,268.3135778646415L529.9213838678988,272.2735660563576L526.3565818019706,284.687812285154L525.9452584866704,289.50922807967663L523.9571957960561,295.14088731122956L524.7798424266548,297.9557677142525L523.203103051339,303.2590191070776L518.8156543548102,302.122796546204L514.9080828594651,307.69471520553816L516.8961455500794,310.0201266816466L512.8514662829657,316.07500111857235L508.46401758643697,329.6338962232362L507.50426318407153,333.79049781662343L503.93946111813966,334.8699126462625L501.8142906557605,331.73935759325514L498.45515024747874,330.60569092382775L496.6727492145128,324.98985122867L492.9022854909326,325.4219270591216L491.3255461156168,323.09934645211024L486.80098964732315,322.01893146566044L484.88148084259046,316.6695198064035L482.48209483667597,316.02095257890596L484.19594198375853,313.37229093176256L478.84873888486254,310.12827491579947L482.48209483667597,305.8557138434826L481.3166787766604,302.880289663869L484.4701575272902,301.4734803914371L483.30474146727465,299.1464885114842L485.97834301672265,294.9784710781305L491.73686943091707,295.35743901414025L493.31360880623106,288.48009329625984L498.5922580192455,287.28835764654286L500.58032070985973,281.38217012104315L501.06019791104336,276.77448409686895L497.97527304629693,270.53783647502496L499.8262279651426,269.72412961648297L500.78598236750804,264.298051163903L503.45958391695603,260.11834855118013L504.21367666167316,252.4066117716966L502.63693728635917,249.69006183724377L504.6249999769734,243.82026408189859L508.0526942711367,241.21056362209947L508.6011253582037,238.11082221762217L504.5564460910882,236.09828912707826L504.9677694063903,232.07222871500426L510.5206341629346,229.94985180900903L509.83509530410083,227.6638020582336L513.6741129135644,224.56061979698597L513.1942357123826,222.32801695747003L517.9244538383282,218.3518796444364L519.3640854418754,214.21095532522213L523.4773185948743,216.60850484522143L527.6591056337529,216.77195687279027L529.5100605526004,218.6242593391562L535.0629253091465,216.11813554847913L535.0629253091465,213.6114938511446L539.039050690375,216.77195687279027Z" fill="#029800"></path><path d="M343.8661375806969,323.261400759719L341.946628775966,325.85398818231624L341.1925360312489,323.74755125835054ZM356.41149869733636,279.91873703366355L357.50836087146854,283.4957145126259L360.45617796445003,286.5840967670865L362.3071328832975,286.2590398866241L364.9807344327455,290.5382781489766L361.7587017962305,290.97153705705114L357.50836087146854,295.519850335666L358.05679195853736,292.1629216917772L355.4517442949709,292.4336751086007L354.4234360067221,288.64259389609015L358.33100750206904,288.64259389609015L357.3712530997036,283.3873363374064L355.38319040908937,281.2737735662299L350.65297228314375,284.79617916102416L350.1730950819601,290.64659428299865L348.3906940489942,290.0508439360324L350.31020285372506,281.9783343163699L352.641034973758,283.3873363374064L353.8750049196551,280.7317766437286Z" fill="#148d00"></path><path d="M550.076226317582,140.03226248551164L546.0315470504702,142.88332084635613L546.4428703657686,147.6518192548151L543.7007149304372,148.03540778718843L536.9824341138774,143.9248816278655L536.6396646844623,139.2097134926321L541.8497600115898,136.138355654713L546.511424251652,137.34505618637468Z" fill="#486e00"></path><path d="M474.32418241656524,180.81374749067163L471.8562425247692,178.0811088238802L469.04553320355444,178.2997429109937L473.4329819000832,167.14429279118622L478.6430772272124,169.49655543839253L481.7965559778422,172.2311603846838L482.8934181519744,176.11322193022943L479.39716997192954,174.2543641795637L475.14682904716574,177.64382864578783Z" fill="#6a5900"></path><path d="M431.615111511288,294.9784710781305L434.9056980336827,296.38600851046385L437.1679762678323,299.4712109419711L431.066680424221,302.50154881108347L427.15910892887405,300.28298027517576L426.61067784180705,296.87319618723177Z" fill="#735400"></path><path d="M529.8528299820191,134.16348748675364L533.0748626185305,140.6354285504608L531.9094465585167,142.11579609647652L534.8572636514964,144.7471014556172L535.0629253091465,150.72017875220536L532.1151082161668,151.76104830416443L532.2522159879318,155.32122532732228L528.9616294655334,156.5807238478269L525.1226118560735,151.15845078594566L522.1062408772068,149.7887967158822L523.9571957960561,145.45964560317634L519.9125165289424,142.9381421297353L523.8200880242894,136.57717017946152L525.3968273996052,136.85142093932882L529.098737237302,132.95646012488487Z" fill="#fe0100"></path><path d="M481.3166787766604,302.880289663869L482.48209483667597,305.8557138434826L478.84873888486254,310.12827491579947L484.19594198375853,313.37229093176256L482.48209483667597,316.02095257890596L477.54621505308023,317.4801820684024L472.67888915536787,321.64076446383797L472.1304580683027,327.2040844404519L469.1826409753212,329.84985701819187L469.9367337200365,335.8413078343169L469.52541040473625,340.9129480485917L464.4524228493756,347.60011998992195L465.9606083388062,355.4153742677845L468.085778801189,359.13268909395174L464.58953062114233,356.87010360516524L460.6819591257954,359.8329326120279L457.39137260339703,356.1696989051993L454.16933996688385,355.5231376391098L451.3586306456709,357.839831794623L448.9592446397546,355.1998448157806L445.5315503455913,356.27745595644274L441.0069938772958,360.4792774660516L433.6031742019022,360.26383278356434L432.3692042560033,365.75654827135986L432.43775814188666,371.08548062058867L430.7924648806875,376.089450190427L431.2723420818693,385.8228337108126L429.62704882067374,390.4987233805414L429.6956027065553,394.47459957621686L422.2232291452783,389.96135001250286L415.7106099863686,381.95186295746726L414.6823016981198,376.14324582264567L415.0936250134182,371.03166399333986L409.5407602568721,358.5940143277385L407.9640208815581,352.5593156823834L409.19799082745703,351.69698452751527L414.8879633557699,354.28380433324355L417.0131338181491,353.2599171138013L423.66286074882737,354.661005378508L425.92513898297693,351.7508819214281L429.07861773360673,352.23594828559726L432.8490814571851,343.8255331459991L434.4943747183843,343.8794636520647L442.78939491026176,335.6254486336197L446.21708920442325,329.2019636296495L448.2051518950375,327.6360849355897L449.7818912703551,322.8832708203345L448.89069075387124,316.12904942717705L453.6894627657002,317.2640105454143L459.3108814081279,311.75038716494737L464.79519227879064,308.93859331659814L466.7832549694049,304.2869415307159L472.1304580683027,300.7159024634975L476.2436912212979,299.68768789597925L479.87704717311135,300.39121222131416Z" fill="#188b00"></path><path d="M541.8497600115898,136.138355654713L536.6396646844623,139.2097134926321L536.9824341138774,143.9248816278655L543.7007149304372,148.03540778718843L546.4428703657686,147.6518192548151L546.0315470504702,142.88332084635613L550.076226317582,140.03226248551164L558.3026926235761,141.67718807352458L560.9077402871408,140.79992302341225L559.8108781130068,144.5278484409937L562.6215874342215,151.10366767034066L565.3637428695529,150.61060820464536L567.694574989584,153.02092571707362L564.2668806954207,154.82834161346682L553.7095822693955,157.07353464351036L554.4636750141126,160.35841644917855L549.1164719152166,162.82148102583233L546.4428703657686,166.98016408979356L543.7007149304372,167.0895834756725L540.1359128645072,170.8639363756015L534.6516019938445,171.57491243734876L531.7037849008648,173.59822758587006L531.9094465585167,178.2997429109937L526.767905117269,183.16331745955085L521.9005792195585,184.52913451852146L519.2269776701105,181.46948785107315L516.8961455500794,176.11322193022943L518.8842082406936,174.1996875086179L518.0615616100949,171.24677491132798L514.2225440006314,168.1837219890358L512.5086968535488,169.2230604089932L507.70992484171984,161.17949476723152L509.28666421703565,159.9752271214561L508.53257147232034,155.21169738627123L512.1659274241338,155.37598891792823L515.936391147714,151.37758070978634L514.0854362288646,147.268218258685L510.931957478233,146.93940748270643L504.6935538628568,141.84166799598825L514.0168823429831,138.9355177183129L519.5011932136422,128.78577370039602L526.6993512313875,124.99794368340281L530.4012610690825,124.39397345461794L535.3371408526782,128.07221820796667L535.3371408526782,130.10299280313575L538.4906196033098,133.66971856290502L540.4786822939259,133.06619501277873ZM529.8528299820191,134.16348748675364L529.098737237302,132.95646012488487L525.3968273996052,136.85142093932882L523.8200880242894,136.57717017946152L519.9125165289424,142.9381421297353L523.9571957960561,145.45964560317634L522.1062408772068,149.7887967158822L525.1226118560735,151.15845078594566L528.9616294655334,156.5807238478269L532.2522159879318,155.32122532732228L532.1151082161668,151.76104830416443L535.0629253091465,150.72017875220536L534.8572636514964,144.7471014556172L531.9094465585167,142.11579609647652L533.0748626185305,140.6354285504608Z" fill="#317b00"></path><path d="M519.3640854418754,214.21095532522213L517.9244538383282,218.3518796444364L513.1942357123826,222.32801695747003L513.6741129135644,224.56061979698597L509.83509530410083,227.6638020582336L502.15706008517554,225.86731923368734L495.644440926264,228.7524506376917L494.6161326380152,227.55493185185242L491.9425310885672,230.3308184387629L488.37772902263714,230.65735179548437L484.5387114131736,234.30304769535542L480.90535546136016,234.68387851838315L479.32861608604617,237.51253615099176L475.83236790599767,236.85982707402582L470.4166109212183,239.79674381116592L467.19457828470695,237.18618596561237L465.61783890939114,237.83887763179018L465.06940782232596,242.24363648157941L458.0083575763474,249.1466798457136L451.9756156186213,247.6794284725329L447.3825052644406,246.21200185361658L445.8743197750082,239.36168949590774L440.3214550184621,237.94765619131704L436.756652952532,230.76619430571373L432.50631202777004,229.29673847287177L434.288713060736,227.60936707662495L438.33339232784783,218.95110690739466L446.9711819491404,206.9064023920223L453.2781394504018,213.9929727654926L459.3794352940113,217.9160594212408L463.14989901759145,218.84215869551826L465.4807311376244,221.34772037948096L472.2675658400676,220.91200763484449L474.25562853068186,216.28159418327095L480.0141549448799,217.26229974431908L482.8934181519744,220.58521282472248L494.68468652389856,214.53792181429708L497.15262641569643,211.15884251572652L500.23755128044286,212.35797855714554L502.568383400474,207.17903957139606L507.70992484171984,206.79734579805472L508.46401758643697,210.77727432081292L512.5086968535488,213.82948327266786L518.1301154959783,212.4669850366131Z" fill="#1f8600"></path><path d="M449.7818912703551,322.8832708203345L448.2051518950375,327.6360849355897L446.21708920442325,329.2019636296495L442.78939491026176,335.6254486336197L434.4943747183843,343.8794636520647L432.8490814571851,343.8255331459991L429.07861773360673,352.23594828559726L425.92513898297693,351.7508819214281L423.66286074882737,354.661005378508L417.0131338181491,353.2599171138013L414.8879633557699,354.28380433324355L409.19799082745703,351.69698452751527L407.9640208815581,352.5593156823834L407.6898053380246,348.9479172415831L404.8105421309265,344.5805395474763L395.0073364496202,337.7838762492979L399.66900068968243,324.449735752843L400.90297063558137,316.12904942717705L402.959587212079,311.91258692007614L409.19799082745703,316.6695198064035L412.0087001486718,316.07500111857235L418.17854987816463,308.6141152115988L423.0458757758788,306.12617206561936L431.2723420818693,304.9902084773421L435.93400632193516,306.77524809483066L436.756652952532,311.5341175816852L439.84157781728027,313.1019881068519L438.33339232784783,314.5615546396525L437.9906228984328,321.64076446383797L443.1321643396768,323.8015668301896Z" fill="#168c00"></path><path d="M504.6935538628568,141.84166799598825L510.931957478233,146.93940748270643L514.0854362288646,147.268218258685L515.936391147714,151.37758070978634L512.1659274241338,155.37598891792823L508.53257147232034,155.21169738627123L509.28666421703565,159.9752271214561L507.70992484171984,161.17949476723152L512.5086968535488,169.2230604089932L514.2225440006314,168.1837219890358L518.0615616100949,171.24677491132798L518.8842082406936,174.1996875086179L516.8961455500794,176.11322193022943L519.2269776701105,181.46948785107315L521.9005792195585,184.52913451852146L520.0496243007092,184.5837639609299L517.1703610936129,191.3012876713501L515.1822984029968,192.39321262345175L511.68605022295014,191.3558862765135L510.86340359234964,185.13004468258487L506.2017393522874,182.61694700515636L506.2702932381708,176.0038853707083L502.63693728635917,174.1996875086179L501.12875179692674,171.5202234771864L499.20924299219405,172.34053152971774L493.10794714858275,168.1837219890358L493.5878243497664,164.73684477743654L489.3374834250026,164.13490658539786L485.15569638612396,162.16471377361768L483.30474146727465,158.33284690868595L478.4374155695641,158.98982629007787L481.5908943201939,152.69227498168084L484.40160364140684,149.02172108609466L487.7607440496886,147.04901209247055L502.63693728635917,141.23856371716556Z" fill="#2b7f00"></path></svg>